<?xml version="1.0" encoding="UTF-8"?>
<svg width="32px" height="32px" viewBox="0 0 32 32" version="1.1" xmlns="http://www.w3.org/2000/svg" xmlns:xlink="http://www.w3.org/1999/xlink">
    <!-- Generator: Sketch 46.2 (44496) - http://www.bohemiancoding.com/sketch -->
    <title>location</title>
    <desc>Created with Sketch.</desc>
    <defs></defs>
    <g id="Page-1" stroke="none" stroke-width="1" fill="none" fill-rule="evenodd">
        <g id="location" fill="#000000">
            <g id="location-pointer" transform="translate(1.000000, 1.000000)">
                <path d="M21.7279012,18.0969895 C21.2657262,18.8478212 20.7589554,19.627032 20.2075887,20.4378654 C24.8252846,21.1278846 27.188053,22.6044121 27.188053,23.3422704 C27.188053,24.3209463 23.0009096,26.6172263 14.8804136,26.6172263 C6.75910679,26.6172263 2.57196338,24.3209463 2.57196338,23.3422704 C2.57196338,22.6044121 4.93473176,21.1278846 9.55242767,20.4378654 C9.00187183,19.627032 8.49753349,18.8478212 8.03211515,18.0969895 C3.47766423,18.9589053 0,20.7224679 0,23.3422704 C0,27.1807555 7.48723514,29.1891897 14.8804136,29.1891897 C22.2760246,29.1891897 29.7600164,27.1807555 29.7600164,23.3422704 C29.7600164,20.7224679 26.2823521,18.9589053 21.7279012,18.0969895 Z" id="Fill-1"></path>
                <path d="M14.9152794,0.037298334 C10.0875777,0.037298334 6.17936095,3.94875841 6.17936095,8.77240599 C6.17936095,12.2314211 10.6705669,18.8543078 13.2141511,22.3189987 C13.6098377,22.8638788 14.2398553,23.1833471 14.9152794,23.1833471 C15.5866495,23.1833471 16.216667,22.8638788 16.6123536,22.3222421 C19.1559379,18.8543078 23.6471438,12.2314211 23.6471438,8.77240599 C23.6471438,3.94875841 19.738927,0.037298334 14.9152794,0.037298334 Z M14.9152794,14.1952594 C12.0611461,14.1952594 9.74297351,11.8762761 9.74297351,9.02619683 C9.74297351,6.17530678 12.0611461,3.85713424 14.9152794,3.85713424 C17.7621153,3.85713424 20.0810987,6.17530678 20.0810987,9.02619683 C20.0810987,11.8762761 17.7621153,14.1952594 14.9152794,14.1952594 Z" id="Fill-2"></path>
                <path d="M14.9152794,5.88097427 C13.1792852,5.88097427 11.7700569,7.29344597 11.7700569,9.02619683 C11.7700569,10.7581369 13.1792852,12.1706086 14.9152794,12.1706086 C16.6472195,12.1706086 18.0572587,10.7581369 18.0572587,9.02619683 C18.0572587,7.29020263 16.6472195,5.88097427 14.9152794,5.88097427 Z" id="Fill-3"></path>
            </g>
        </g>
    </g>
</svg>